<svg width="356" height="102" viewBox="0 0 356 102" fill="none" xmlns="http://www.w3.org/2000/svg">
<path d="M228.342 97.534V28.5481H247.42L255.638 67.0078H256.91L265.03 28.5481H283.52V97.534H272.074V61.0578L272.758 37.2576H271.389L263.562 74.6825H248.398L240.474 37.2576H239.104L239.789 61.0578V97.534H228.342Z" fill="white"/>
<path d="M310.247 79.5115C311.226 82.4434 312.987 84.6854 315.53 86.2376C318.074 87.7898 321.27 88.5659 325.118 88.5659C329.357 88.5659 332.683 87.6461 335.097 85.8064C337.575 83.9668 338.814 81.4373 338.814 78.218C338.814 75.8035 337.934 73.8489 336.173 72.3542C334.412 70.802 331.901 69.796 328.64 69.3361L319.737 68.215C312.889 67.1802 307.671 64.9957 304.084 61.6614C300.562 58.2696 298.801 53.7567 298.801 48.1229C298.801 43.8688 299.91 40.1608 302.127 36.9989C304.345 33.8371 307.443 31.3938 311.421 29.6692C315.465 27.9445 320.194 27.0822 325.607 27.0822C331.02 27.0822 335.716 27.9445 339.695 29.6692C343.673 31.3363 346.804 33.7508 349.087 36.9127C351.435 40.017 352.739 43.8113 353 48.2954H340.967C339.988 44.7886 338.195 42.1154 335.586 40.2757C332.977 38.4361 329.651 37.5163 325.607 37.5163C321.172 37.5163 317.682 38.4649 315.139 40.362C312.595 42.2016 311.323 44.7598 311.323 48.0367C311.323 50.3937 312.204 52.3483 313.965 53.9005C315.726 55.4526 318.237 56.4587 321.498 56.9186L330.499 58.0396C337.347 59.0169 342.532 61.2015 346.054 64.5933C349.576 67.9851 351.337 72.4692 351.337 78.0455C351.337 82.2997 350.261 86.0077 348.108 89.1695C345.956 92.2739 342.891 94.6884 338.912 96.413C334.999 98.1377 330.401 99 325.118 99C319.77 99 315.106 98.2239 311.128 96.6717C307.149 95.1195 304.019 92.9062 301.736 90.0318C299.453 87.0999 298.181 83.5931 297.92 79.5115H310.247Z" fill="white"/>
<path d="M3 99V31.8767H29.6049C34.4934 31.8767 38.7552 32.6878 42.3903 34.3099C46.0253 35.9321 48.8456 38.2255 50.8512 41.1901C52.8567 44.1547 53.8595 47.6786 53.8595 51.762C53.8595 55.5097 52.8254 58.8099 50.7572 61.6627C48.7516 64.5154 45.9313 66.7528 42.2963 68.375C38.6612 69.9412 34.4307 70.7243 29.6049 70.7243H15.3153V99H3ZM41.8262 99L21.9901 68.8784H35.1515L55.7397 99H41.8262ZM15.3153 61.327H29.6049C33.2399 61.327 36.1229 60.46 38.2538 58.726C40.4474 56.992 41.5442 54.6707 41.5442 51.762C41.5442 48.8533 40.4474 46.532 38.2538 44.7979C36.1229 43.0639 33.2399 42.1969 29.6049 42.1969H15.3153V61.327Z" fill="white"/>
<path d="M103.251 99C92.3195 99 84.0467 95.0141 78.433 87.0424C72.8932 78.9941 70.1233 66.9982 70.1233 51.0548C70.1233 35.1114 72.8932 23.1538 78.433 15.1821C84.0467 7.13377 92.3195 3.10959 103.251 3.10959C114.257 3.10959 122.53 7.13377 128.07 15.1821C133.61 23.1538 136.38 35.1114 136.38 51.0548C136.38 66.9982 133.61 78.9941 128.07 87.0424C122.53 95.0141 114.257 99 103.251 99ZM103.251 84.9729C109.604 84.9729 114.294 82.2134 117.323 76.6946C118.679 74.2222 119.732 71.1423 120.481 67.4547C121.404 62.9107 121.865 57.4441 121.865 51.0548C121.865 44.6655 121.404 39.1989 120.481 34.6549C119.732 30.9673 118.679 27.8874 117.323 25.415C114.294 19.8962 109.604 17.1367 103.251 17.1367C96.8991 17.1367 92.2087 19.8962 89.1803 25.415C86.1519 30.9339 84.6376 39.4805 84.6376 51.0548C84.6376 62.6291 86.1519 71.1757 89.1803 76.6946C92.2087 82.2134 96.8991 84.9729 103.251 84.9729Z" fill="white"/>
<path d="M121.865 51.0548C121.865 44.6655 121.404 39.1989 120.481 34.6549L103.251 51.0548L120.481 67.4547C121.404 62.9107 121.865 57.4441 121.865 51.0548Z" fill="white"/>
<path d="M180.831 99C169.899 99 161.626 95.0141 156.012 87.0424C150.472 78.9941 147.703 66.9982 147.703 51.0548C147.703 35.1114 150.472 23.1538 156.012 15.1821C161.626 7.13377 169.899 3.10959 180.831 3.10959C191.837 3.10959 200.109 7.13377 205.649 15.1821C211.189 23.1538 213.959 35.1114 213.959 51.0548C213.959 66.9982 211.189 78.9941 205.649 87.0424C200.109 95.0141 191.837 99 180.831 99ZM180.831 84.9729C187.183 84.9729 191.873 82.2134 194.902 76.6946C196.259 74.2222 197.311 71.1423 198.06 67.4547C198.983 62.9107 199.445 57.4441 199.445 51.0548C199.445 44.6655 198.983 39.1989 198.06 34.6549C197.311 30.9673 196.259 27.8874 194.902 25.415C191.873 19.8962 187.183 17.1367 180.831 17.1367C174.478 17.1367 169.788 19.8962 166.76 25.415C163.731 30.9339 162.217 39.4805 162.217 51.0548C162.217 62.6291 163.731 71.1757 166.76 76.6946C169.788 82.2134 174.478 84.9729 180.831 84.9729Z" fill="white"/>
<path d="M199.445 51.0548C199.445 44.6655 198.983 39.1989 198.06 34.6549L180.831 51.0548L198.06 67.4547C198.983 62.9107 199.445 57.4441 199.445 51.0548Z" fill="white"/>
<path d="M120.481 34.6549C121.404 39.1989 121.865 44.6655 121.865 51.0548C121.865 57.4441 121.404 62.9107 120.481 67.4547M120.481 34.6549C119.732 30.9673 118.679 27.8874 117.323 25.415C114.294 19.8962 109.604 17.1367 103.251 17.1367C96.8991 17.1367 92.2087 19.8962 89.1803 25.415C86.1519 30.9339 84.6376 39.4805 84.6376 51.0548C84.6376 62.6291 86.1519 71.1757 89.1803 76.6946C92.2087 82.2134 96.8991 84.9729 103.251 84.9729C109.604 84.9729 114.294 82.2134 117.323 76.6946C118.679 74.2222 119.732 71.1423 120.481 67.4547M120.481 34.6549L103.251 51.0548L120.481 67.4547M198.06 34.6549C198.983 39.1989 199.445 44.6655 199.445 51.0548C199.445 57.4441 198.983 62.9107 198.06 67.4547M198.06 34.6549C197.311 30.9673 196.259 27.8874 194.902 25.415C191.873 19.8962 187.183 17.1367 180.831 17.1367C174.478 17.1367 169.788 19.8962 166.76 25.415C163.731 30.9339 162.217 39.4805 162.217 51.0548C162.217 62.6291 163.731 71.1757 166.76 76.6946C169.788 82.2134 174.478 84.9729 180.831 84.9729C187.183 84.9729 191.873 82.2134 194.902 76.6946C196.259 74.2222 197.311 71.1423 198.06 67.4547M198.06 34.6549L180.831 51.0548L198.06 67.4547M228.342 97.534V28.5481H247.42L255.638 67.0078H256.91L265.03 28.5481H283.52V97.534H272.074V61.0578L272.758 37.2576H271.389L263.562 74.6825H248.398L240.474 37.2576H239.104L239.789 61.0578V97.534H228.342ZM310.247 79.5115C311.226 82.4434 312.987 84.6854 315.53 86.2376C318.074 87.7898 321.27 88.5659 325.118 88.5659C329.357 88.5659 332.683 87.6461 335.097 85.8064C337.575 83.9668 338.814 81.4373 338.814 78.218C338.814 75.8035 337.934 73.8489 336.173 72.3542C334.412 70.802 331.901 69.796 328.64 69.3361L319.737 68.215C312.889 67.1802 307.671 64.9957 304.084 61.6614C300.562 58.2696 298.801 53.7567 298.801 48.1229C298.801 43.8688 299.91 40.1608 302.127 36.9989C304.345 33.8371 307.443 31.3938 311.421 29.6692C315.465 27.9445 320.194 27.0822 325.607 27.0822C331.02 27.0822 335.716 27.9445 339.695 29.6692C343.673 31.3363 346.804 33.7508 349.087 36.9127C351.435 40.017 352.739 43.8113 353 48.2954H340.967C339.988 44.7886 338.195 42.1154 335.586 40.2757C332.977 38.4361 329.651 37.5163 325.607 37.5163C321.172 37.5163 317.682 38.4649 315.139 40.362C312.595 42.2016 311.323 44.7598 311.323 48.0367C311.323 50.3937 312.204 52.3483 313.965 53.9005C315.726 55.4526 318.237 56.4587 321.498 56.9186L330.499 58.0396C337.347 59.0169 342.532 61.2015 346.054 64.5933C349.576 67.9851 351.337 72.4692 351.337 78.0455C351.337 82.2997 350.261 86.0077 348.108 89.1695C345.956 92.2739 342.891 94.6884 338.912 96.413C334.999 98.1377 330.401 99 325.118 99C319.77 99 315.106 98.2239 311.128 96.6717C307.149 95.1195 304.019 92.9062 301.736 90.0318C299.453 87.0999 298.181 83.5931 297.92 79.5115H310.247ZM3 99V31.8767H29.6049C34.4934 31.8767 38.7552 32.6878 42.3903 34.3099C46.0253 35.9321 48.8456 38.2255 50.8512 41.1901C52.8567 44.1547 53.8595 47.6786 53.8595 51.762C53.8595 55.5097 52.8254 58.8099 50.7572 61.6627C48.7516 64.5154 45.9313 66.7528 42.2963 68.375C38.6612 69.9412 34.4307 70.7243 29.6049 70.7243H15.3153V99H3ZM41.8262 99L21.9901 68.8784H35.1515L55.7397 99H41.8262ZM15.3153 61.327H29.6049C33.2399 61.327 36.1229 60.46 38.2538 58.726C40.4474 56.992 41.5442 54.6707 41.5442 51.762C41.5442 48.8533 40.4474 46.532 38.2538 44.7979C36.1229 43.0639 33.2399 42.1969 29.6049 42.1969H15.3153V61.327ZM103.251 99C92.3195 99 84.0467 95.0141 78.433 87.0424C72.8932 78.9941 70.1233 66.9982 70.1233 51.0548C70.1233 35.1114 72.8932 23.1538 78.433 15.1821C84.0467 7.13377 92.3195 3.10959 103.251 3.10959C114.257 3.10959 122.53 7.13377 128.07 15.1821C133.61 23.1538 136.38 35.1114 136.38 51.0548C136.38 66.9982 133.61 78.9941 128.07 87.0424C122.53 95.0141 114.257 99 103.251 99ZM180.831 99C169.899 99 161.626 95.0141 156.012 87.0424C150.472 78.9941 147.703 66.9982 147.703 51.0548C147.703 35.1114 150.472 23.1538 156.012 15.1821C161.626 7.13377 169.899 3.10959 180.831 3.10959C191.837 3.10959 200.109 7.13377 205.649 15.1821C211.189 23.1538 213.959 35.1114 213.959 51.0548C213.959 66.9982 211.189 78.9941 205.649 87.0424C200.109 95.0141 191.837 99 180.831 99Z" stroke="white" stroke-width="4.79452"/>
</svg>
